<svg width="346" height="200" viewBox="0 0 346 200" fill="none" xmlns="http://www.w3.org/2000/svg">
<path d="M334 3H12C7.02944 3 3 7.02944 3 12V138C3 142.971 7.02944 147 12 147H334C338.971 147 343 142.971 343 138V12C343 7.02944 338.971 3 334 3Z" stroke="white" stroke-width="6"/>
<path d="M87.6365 102.972V119.757H41.4509V102.972H87.6365ZM48.8906 29.2433V119.757H28V29.2433H48.8906ZM81.6847 65.1751V81.4004H41.4509V65.1751H81.6847ZM87.815 29.2433V46.0902H41.4509V29.2433H87.815Z" fill="white"/>
<path d="M198.563 102.972V119.757H154.758V102.972H198.563ZM162.198 29.2433V119.757H141.307V29.2433H162.198Z" fill="white"/>
<path d="M297.109 95.6985C297.109 94.2894 296.911 93.0254 296.514 91.9064C296.117 90.746 295.383 89.6684 294.312 88.6738C293.241 87.6791 291.693 86.6845 289.67 85.6898C287.686 84.6537 285.067 83.5762 281.813 82.4572C278.004 81.131 274.334 79.639 270.803 77.9813C267.271 76.2821 264.117 74.3135 261.339 72.0755C258.562 69.7961 256.36 67.1437 254.733 64.1183C253.106 61.0515 252.293 57.4873 252.293 53.4258C252.293 49.5301 253.126 46.0281 254.792 42.9198C256.459 39.7701 258.78 37.0969 261.756 34.9004C264.772 32.6624 268.303 30.9632 272.35 29.8028C276.397 28.6009 280.821 28 285.623 28C291.971 28 297.566 29.1604 302.406 31.4813C307.287 33.7607 311.096 37.014 313.834 41.2413C316.611 45.4271 318 50.3797 318 56.0989H297.228C297.228 53.8195 296.772 51.8095 295.86 50.0688C294.987 48.3282 293.657 46.9606 291.872 45.9659C290.086 44.9713 287.844 44.4739 285.146 44.4739C282.528 44.4739 280.325 44.8884 278.54 45.7172C276.754 46.5461 275.405 47.6651 274.493 49.0742C273.58 50.4418 273.124 51.9545 273.124 53.6123C273.124 54.9799 273.481 56.2233 274.195 57.3422C274.949 58.4198 276.001 59.4352 277.35 60.3884C278.738 61.3416 280.405 62.2533 282.349 63.1237C284.333 63.994 286.555 64.8436 289.015 65.6725C293.618 67.2059 297.705 68.9258 301.276 70.8322C304.886 72.6972 307.922 74.8315 310.382 77.2353C312.882 79.5976 314.766 82.2914 316.036 85.3168C317.345 88.3422 318 91.7614 318 95.5742C318 99.6357 317.246 103.241 315.738 106.391C314.231 109.541 312.068 112.214 309.251 114.41C306.434 116.566 303.061 118.203 299.133 119.322C295.205 120.441 290.82 121 285.98 121C281.536 121 277.151 120.42 272.826 119.259C268.541 118.057 264.653 116.234 261.161 113.789C257.669 111.302 254.872 108.132 252.769 104.277C250.706 100.382 249.674 95.7607 249.674 90.4144H270.624C270.624 93.0668 270.961 95.3048 271.636 97.1283C272.31 98.9519 273.302 100.423 274.612 101.542C275.921 102.62 277.528 103.407 279.433 103.904C281.337 104.36 283.52 104.588 285.98 104.588C288.638 104.588 290.781 104.195 292.407 103.407C294.034 102.578 295.225 101.501 295.979 100.174C296.732 98.8068 297.109 97.3148 297.109 95.6985Z" fill="white"/>
<path d="M13.043 186.836V190H3.94922V186.836H13.043ZM5.41406 172.938V190H1.30078V172.938H5.41406ZM11.8711 179.711V182.77H3.94922V179.711H11.8711ZM13.0781 172.938V176.113H3.94922V172.938H13.0781ZM19.9673 180.004V190H16.0181V177.32H19.7213L19.9673 180.004ZM19.4869 183.227L18.5845 183.25C18.5845 182.359 18.69 181.539 18.9009 180.789C19.1119 180.039 19.4244 179.387 19.8384 178.832C20.2525 178.277 20.7603 177.848 21.3619 177.543C21.9713 177.238 22.6744 177.086 23.4713 177.086C24.0259 177.086 24.5298 177.172 24.983 177.344C25.4361 177.508 25.8267 177.77 26.1548 178.129C26.483 178.48 26.733 178.941 26.9048 179.512C27.0845 180.074 27.1744 180.75 27.1744 181.539V190H23.2252V182.043C23.2252 181.504 23.1627 181.098 23.0377 180.824C22.9205 180.551 22.7486 180.367 22.522 180.273C22.2955 180.18 22.0181 180.133 21.69 180.133C21.3463 180.133 21.0377 180.211 20.7642 180.367C20.4908 180.523 20.2564 180.742 20.0611 181.023C19.8736 181.297 19.7291 181.621 19.6275 181.996C19.5338 182.371 19.4869 182.781 19.4869 183.227ZM26.7291 183.227L25.6275 183.25C25.6275 182.359 25.7252 181.539 25.9205 180.789C26.1236 180.039 26.4244 179.387 26.8228 178.832C27.2291 178.277 27.733 177.848 28.3345 177.543C28.9361 177.238 29.6353 177.086 30.4322 177.086C31.0103 177.086 31.5416 177.172 32.0259 177.344C32.5103 177.516 32.9283 177.793 33.2798 178.176C33.6314 178.559 33.9048 179.066 34.1002 179.699C34.2955 180.324 34.3931 181.098 34.3931 182.02V190H30.4322V182.02C30.4322 181.496 30.3697 181.102 30.2447 180.836C30.1275 180.562 29.9556 180.379 29.7291 180.285C29.5025 180.184 29.233 180.133 28.9205 180.133C28.5455 180.133 28.2213 180.211 27.9478 180.367C27.6744 180.523 27.4439 180.742 27.2564 181.023C27.0767 181.297 26.9439 181.621 26.858 181.996C26.772 182.371 26.7291 182.781 26.7291 183.227ZM42.0792 179.758V194.875H38.13V177.32H41.8097L42.0792 179.758ZM49.8605 183.508V183.754C49.8605 184.676 49.755 185.531 49.5441 186.32C49.3331 187.109 49.0206 187.797 48.6066 188.383C48.1925 188.969 47.6769 189.426 47.0597 189.754C46.4503 190.074 45.7433 190.234 44.9386 190.234C44.1808 190.234 43.5284 190.066 42.9816 189.73C42.4347 189.395 41.9777 188.93 41.6105 188.336C41.2433 187.742 40.9464 187.062 40.7198 186.297C40.4933 185.531 40.3136 184.723 40.1808 183.871V183.555C40.3136 182.641 40.4933 181.793 40.7198 181.012C40.9464 180.223 41.2433 179.535 41.6105 178.949C41.9777 178.363 42.4308 177.906 42.9698 177.578C43.5167 177.25 44.1691 177.086 44.9269 177.086C45.7316 177.086 46.4386 177.238 47.048 177.543C47.6652 177.848 48.1808 178.285 48.5948 178.855C49.0167 179.418 49.3331 180.094 49.5441 180.883C49.755 181.672 49.8605 182.547 49.8605 183.508ZM45.9113 183.754V183.508C45.9113 183.016 45.8761 182.566 45.8058 182.16C45.7355 181.746 45.6222 181.387 45.4659 181.082C45.3175 180.777 45.1183 180.543 44.8683 180.379C44.6183 180.215 44.3097 180.133 43.9425 180.133C43.5206 180.133 43.1652 180.199 42.8761 180.332C42.5948 180.457 42.3683 180.652 42.1964 180.918C42.0323 181.176 41.9152 181.5 41.8448 181.891C41.7823 182.273 41.755 182.723 41.7628 183.238V184.199C41.7472 184.793 41.8058 185.316 41.9386 185.77C42.0714 186.215 42.3019 186.562 42.63 186.812C42.9581 187.062 43.4034 187.188 43.9659 187.188C44.3409 187.188 44.6534 187.102 44.9034 186.93C45.1534 186.75 45.3527 186.504 45.5011 186.191C45.6495 185.871 45.755 185.504 45.8175 185.09C45.88 184.676 45.9113 184.23 45.9113 183.754ZM52.5661 183.789V183.543C52.5661 182.613 52.6989 181.758 52.9645 180.977C53.2302 180.188 53.6208 179.504 54.1364 178.926C54.652 178.348 55.2887 177.898 56.0466 177.578C56.8044 177.25 57.6794 177.086 58.6716 177.086C59.6716 177.086 60.5505 177.25 61.3083 177.578C62.0739 177.898 62.7145 178.348 63.2302 178.926C63.7458 179.504 64.1364 180.188 64.402 180.977C64.6677 181.758 64.8005 182.613 64.8005 183.543V183.789C64.8005 184.711 64.6677 185.566 64.402 186.355C64.1364 187.137 63.7458 187.82 63.2302 188.406C62.7145 188.984 62.0778 189.434 61.32 189.754C60.5622 190.074 59.6872 190.234 58.695 190.234C57.7028 190.234 56.8239 190.074 56.0583 189.754C55.2927 189.434 54.652 188.984 54.1364 188.406C53.6208 187.82 53.2302 187.137 52.9645 186.355C52.6989 185.566 52.5661 184.711 52.5661 183.789ZM56.5153 183.543V183.789C56.5153 184.266 56.5505 184.711 56.6208 185.125C56.6911 185.539 56.8083 185.902 56.9723 186.215C57.1364 186.52 57.3591 186.758 57.6403 186.93C57.9216 187.102 58.2731 187.188 58.695 187.188C59.1091 187.188 59.4528 187.102 59.7262 186.93C60.0075 186.758 60.2302 186.52 60.3942 186.215C60.5583 185.902 60.6755 185.539 60.7458 185.125C60.8161 184.711 60.8512 184.266 60.8512 183.789V183.543C60.8512 183.082 60.8161 182.648 60.7458 182.242C60.6755 181.828 60.5583 181.465 60.3942 181.152C60.2302 180.832 60.0075 180.582 59.7262 180.402C59.445 180.223 59.0934 180.133 58.6716 180.133C58.2575 180.133 57.9098 180.223 57.6286 180.402C57.3552 180.582 57.1364 180.832 56.9723 181.152C56.8083 181.465 56.6911 181.828 56.6208 182.242C56.5505 182.648 56.5153 183.082 56.5153 183.543ZM71.8538 186.227L74.1975 177.32H76.6702L75.7913 181.785L73.4709 190H71.4905L71.8538 186.227ZM70.928 177.32L72.3811 186.156L72.5452 190H70.1428L67.1428 177.32H70.928ZM78.7561 185.969L80.2209 177.32H84.0061L81.0295 190H78.6272L78.7561 185.969ZM76.9514 177.32L79.3186 186.203L79.6819 190H77.678L75.4045 181.809L74.5608 177.32H76.9514ZM93.0164 190.234C91.9852 190.234 91.0633 190.074 90.2508 189.754C89.4383 189.426 88.7508 188.977 88.1883 188.406C87.6336 187.836 87.2078 187.18 86.9109 186.438C86.6219 185.695 86.4773 184.91 86.4773 184.082V183.637C86.4773 182.707 86.6062 181.848 86.8641 181.059C87.1219 180.262 87.5047 179.566 88.0125 178.973C88.5203 178.379 89.157 177.918 89.9227 177.59C90.6883 177.254 91.5789 177.086 92.5945 177.086C93.493 177.086 94.2977 177.23 95.0086 177.52C95.7195 177.809 96.3211 178.223 96.8133 178.762C97.3133 179.301 97.6922 179.953 97.95 180.719C98.2156 181.484 98.3484 182.344 98.3484 183.297V184.902H87.9891V182.43H94.493V182.125C94.5008 181.703 94.4266 181.344 94.2703 181.047C94.1219 180.75 93.9031 180.523 93.6141 180.367C93.325 180.211 92.9734 180.133 92.5594 180.133C92.1297 180.133 91.7742 180.227 91.493 180.414C91.2195 180.602 91.0047 180.859 90.8484 181.188C90.7 181.508 90.5945 181.879 90.532 182.301C90.4695 182.723 90.4383 183.168 90.4383 183.637V184.082C90.4383 184.551 90.5008 184.977 90.6258 185.359C90.7586 185.742 90.9461 186.07 91.1883 186.344C91.4383 186.609 91.7352 186.816 92.0789 186.965C92.4305 187.113 92.8289 187.188 93.2742 187.188C93.8133 187.188 94.3445 187.086 94.868 186.883C95.3914 186.68 95.8406 186.344 96.2156 185.875L98.0086 188.008C97.7508 188.375 97.3836 188.73 96.907 189.074C96.4383 189.418 95.8758 189.699 95.2195 189.918C94.5633 190.129 93.8289 190.234 93.0164 190.234ZM105.378 180.461V190H101.429V177.32H105.12L105.378 180.461ZM109.128 177.227L109.058 180.895C108.902 180.879 108.691 180.859 108.425 180.836C108.16 180.812 107.937 180.801 107.757 180.801C107.296 180.801 106.898 180.855 106.562 180.965C106.234 181.066 105.96 181.223 105.742 181.434C105.531 181.637 105.374 181.895 105.273 182.207C105.179 182.52 105.136 182.883 105.144 183.297L104.429 182.828C104.429 181.977 104.511 181.203 104.675 180.508C104.847 179.805 105.089 179.199 105.402 178.691C105.714 178.176 106.093 177.781 106.538 177.508C106.984 177.227 107.484 177.086 108.038 177.086C108.234 177.086 108.425 177.098 108.613 177.121C108.808 177.145 108.98 177.18 109.128 177.227ZM116.1 177.32V190H112.139V177.32H116.1ZM111.904 174.051C111.904 173.488 112.107 173.027 112.514 172.668C112.92 172.309 113.447 172.129 114.096 172.129C114.744 172.129 115.271 172.309 115.678 172.668C116.084 173.027 116.287 173.488 116.287 174.051C116.287 174.613 116.084 175.074 115.678 175.434C115.271 175.793 114.744 175.973 114.096 175.973C113.447 175.973 112.92 175.793 112.514 175.434C112.107 175.074 111.904 174.613 111.904 174.051ZM123.856 180.027V190H119.907V177.32H123.61L123.856 180.027ZM123.387 183.227L122.461 183.25C122.461 182.281 122.579 181.418 122.813 180.66C123.047 179.895 123.379 179.246 123.809 178.715C124.239 178.184 124.75 177.781 125.344 177.508C125.946 177.227 126.614 177.086 127.348 177.086C127.934 177.086 128.469 177.172 128.954 177.344C129.446 177.516 129.868 177.793 130.219 178.176C130.579 178.559 130.852 179.066 131.04 179.699C131.235 180.324 131.333 181.098 131.333 182.02V190H127.36V182.008C127.36 181.5 127.29 181.113 127.149 180.848C127.008 180.574 126.805 180.387 126.54 180.285C126.274 180.184 125.95 180.133 125.567 180.133C125.161 180.133 124.817 180.211 124.536 180.367C124.254 180.523 124.028 180.742 123.856 181.023C123.692 181.297 123.571 181.621 123.493 181.996C123.422 182.371 123.387 182.781 123.387 183.227ZM142.933 177.32H146.519V189.508C146.519 190.68 146.249 191.672 145.71 192.484C145.171 193.305 144.417 193.926 143.448 194.348C142.487 194.777 141.362 194.992 140.073 194.992C139.503 194.992 138.921 194.918 138.327 194.77C137.733 194.629 137.179 194.418 136.663 194.137C136.148 193.855 135.714 193.508 135.362 193.094L137.015 190.773C137.335 191.133 137.737 191.438 138.222 191.688C138.706 191.945 139.276 192.074 139.933 192.074C140.503 192.074 140.98 191.973 141.362 191.77C141.753 191.566 142.05 191.27 142.253 190.879C142.456 190.496 142.558 190.031 142.558 189.484V180.32L142.933 177.32ZM134.507 183.812V183.566C134.507 182.605 134.624 181.73 134.858 180.941C135.101 180.145 135.444 179.461 135.89 178.891C136.343 178.312 136.89 177.867 137.53 177.555C138.171 177.242 138.894 177.086 139.698 177.086C140.565 177.086 141.276 177.254 141.831 177.59C142.394 177.918 142.843 178.379 143.179 178.973C143.523 179.566 143.788 180.262 143.976 181.059C144.171 181.848 144.335 182.699 144.468 183.613V183.906C144.335 184.766 144.151 185.578 143.917 186.344C143.69 187.102 143.394 187.773 143.026 188.359C142.659 188.945 142.198 189.406 141.644 189.742C141.097 190.07 140.44 190.234 139.675 190.234C138.878 190.234 138.159 190.074 137.519 189.754C136.886 189.434 136.343 188.984 135.89 188.406C135.444 187.828 135.101 187.148 134.858 186.367C134.624 185.586 134.507 184.734 134.507 183.812ZM138.456 183.566V183.812C138.456 184.289 138.499 184.73 138.585 185.137C138.679 185.543 138.819 185.902 139.007 186.215C139.194 186.52 139.425 186.758 139.698 186.93C139.98 187.102 140.308 187.188 140.683 187.188C141.253 187.188 141.714 187.066 142.065 186.824C142.417 186.582 142.671 186.238 142.827 185.793C142.983 185.348 143.05 184.824 143.026 184.223V183.297C143.042 182.781 143.007 182.328 142.921 181.938C142.835 181.539 142.698 181.207 142.511 180.941C142.331 180.676 142.089 180.477 141.784 180.344C141.487 180.203 141.128 180.133 140.706 180.133C140.339 180.133 140.015 180.219 139.733 180.391C139.452 180.562 139.218 180.805 139.03 181.117C138.843 181.422 138.698 181.785 138.597 182.207C138.503 182.621 138.456 183.074 138.456 183.566ZM169.11 186.836V190H160.485V186.836H169.11ZM161.949 172.938V190H157.836V172.938H161.949ZM178.237 190.234C177.206 190.234 176.284 190.074 175.471 189.754C174.659 189.426 173.971 188.977 173.409 188.406C172.854 187.836 172.428 187.18 172.132 186.438C171.842 185.695 171.698 184.91 171.698 184.082V183.637C171.698 182.707 171.827 181.848 172.085 181.059C172.342 180.262 172.725 179.566 173.233 178.973C173.741 178.379 174.378 177.918 175.143 177.59C175.909 177.254 176.8 177.086 177.815 177.086C178.714 177.086 179.518 177.23 180.229 177.52C180.94 177.809 181.542 178.223 182.034 178.762C182.534 179.301 182.913 179.953 183.171 180.719C183.436 181.484 183.569 182.344 183.569 183.297V184.902H173.21V182.43H179.714V182.125C179.721 181.703 179.647 181.344 179.491 181.047C179.342 180.75 179.124 180.523 178.835 180.367C178.546 180.211 178.194 180.133 177.78 180.133C177.35 180.133 176.995 180.227 176.714 180.414C176.44 180.602 176.225 180.859 176.069 181.188C175.921 181.508 175.815 181.879 175.753 182.301C175.69 182.723 175.659 183.168 175.659 183.637V184.082C175.659 184.551 175.721 184.977 175.846 185.359C175.979 185.742 176.167 186.07 176.409 186.344C176.659 186.609 176.956 186.816 177.3 186.965C177.651 187.113 178.05 187.188 178.495 187.188C179.034 187.188 179.565 187.086 180.089 186.883C180.612 186.68 181.061 186.344 181.436 185.875L183.229 188.008C182.971 188.375 182.604 188.73 182.128 189.074C181.659 189.418 181.096 189.699 180.44 189.918C179.784 190.129 179.05 190.234 178.237 190.234ZM194.583 177.32H198.169V189.508C198.169 190.68 197.9 191.672 197.361 192.484C196.822 193.305 196.068 193.926 195.099 194.348C194.138 194.777 193.013 194.992 191.724 194.992C191.154 194.992 190.572 194.918 189.978 194.77C189.384 194.629 188.829 194.418 188.314 194.137C187.798 193.855 187.365 193.508 187.013 193.094L188.665 190.773C188.986 191.133 189.388 191.438 189.872 191.688C190.357 191.945 190.927 192.074 191.583 192.074C192.154 192.074 192.63 191.973 193.013 191.77C193.404 191.566 193.7 191.27 193.904 190.879C194.107 190.496 194.208 190.031 194.208 189.484V180.32L194.583 177.32ZM186.158 183.812V183.566C186.158 182.605 186.275 181.73 186.509 180.941C186.751 180.145 187.095 179.461 187.54 178.891C187.993 178.312 188.54 177.867 189.181 177.555C189.822 177.242 190.544 177.086 191.349 177.086C192.216 177.086 192.927 177.254 193.482 177.59C194.044 177.918 194.493 178.379 194.829 178.973C195.173 179.566 195.439 180.262 195.626 181.059C195.822 181.848 195.986 182.699 196.118 183.613V183.906C195.986 184.766 195.802 185.578 195.568 186.344C195.341 187.102 195.044 187.773 194.677 188.359C194.31 188.945 193.849 189.406 193.294 189.742C192.747 190.07 192.091 190.234 191.325 190.234C190.529 190.234 189.81 190.074 189.169 189.754C188.536 189.434 187.993 188.984 187.54 188.406C187.095 187.828 186.751 187.148 186.509 186.367C186.275 185.586 186.158 184.734 186.158 183.812ZM190.107 183.566V183.812C190.107 184.289 190.15 184.73 190.236 185.137C190.329 185.543 190.47 185.902 190.658 186.215C190.845 186.52 191.075 186.758 191.349 186.93C191.63 187.102 191.958 187.188 192.333 187.188C192.904 187.188 193.365 187.066 193.716 186.824C194.068 186.582 194.322 186.238 194.478 185.793C194.634 185.348 194.7 184.824 194.677 184.223V183.297C194.693 182.781 194.658 182.328 194.572 181.938C194.486 181.539 194.349 181.207 194.161 180.941C193.982 180.676 193.74 180.477 193.435 180.344C193.138 180.203 192.779 180.133 192.357 180.133C191.99 180.133 191.665 180.219 191.384 180.391C191.103 180.562 190.868 180.805 190.681 181.117C190.493 181.422 190.349 181.785 190.247 182.207C190.154 182.621 190.107 183.074 190.107 183.566ZM208.469 186.812V181.586C208.469 181.227 208.418 180.918 208.316 180.66C208.215 180.402 208.055 180.203 207.836 180.062C207.617 179.914 207.324 179.84 206.957 179.84C206.66 179.84 206.406 179.891 206.195 179.992C205.984 180.094 205.824 180.246 205.715 180.449C205.605 180.652 205.551 180.91 205.551 181.223H201.601C201.601 180.637 201.73 180.094 201.988 179.594C202.254 179.086 202.629 178.645 203.113 178.27C203.605 177.895 204.191 177.605 204.871 177.402C205.558 177.191 206.324 177.086 207.168 177.086C208.176 177.086 209.074 177.254 209.863 177.59C210.66 177.926 211.289 178.43 211.75 179.102C212.211 179.766 212.441 180.602 212.441 181.609V186.801C212.441 187.629 212.488 188.258 212.582 188.688C212.676 189.109 212.808 189.48 212.98 189.801V190H209.019C208.832 189.609 208.691 189.133 208.598 188.57C208.512 188 208.469 187.414 208.469 186.812ZM208.949 182.254L208.973 184.363H207.226C206.859 184.363 206.547 184.414 206.289 184.516C206.039 184.617 205.836 184.758 205.68 184.938C205.531 185.109 205.422 185.305 205.351 185.523C205.289 185.742 205.258 185.973 205.258 186.215C205.258 186.449 205.312 186.66 205.422 186.848C205.539 187.027 205.695 187.168 205.89 187.27C206.086 187.371 206.305 187.422 206.547 187.422C206.984 187.422 207.355 187.34 207.66 187.176C207.973 187.004 208.211 186.797 208.375 186.555C208.539 186.312 208.621 186.086 208.621 185.875L209.488 187.492C209.332 187.805 209.152 188.121 208.949 188.441C208.754 188.762 208.508 189.059 208.211 189.332C207.922 189.598 207.566 189.816 207.144 189.988C206.723 190.152 206.211 190.234 205.609 190.234C204.828 190.234 204.109 190.074 203.453 189.754C202.805 189.434 202.285 188.988 201.894 188.418C201.504 187.84 201.308 187.176 201.308 186.426C201.308 185.77 201.426 185.184 201.66 184.668C201.902 184.152 202.265 183.715 202.75 183.355C203.234 182.996 203.851 182.723 204.601 182.535C205.351 182.348 206.234 182.254 207.25 182.254H208.949ZM220.245 172V190H216.284V172H220.245ZM240.515 185.465C240.515 185.199 240.476 184.961 240.398 184.75C240.32 184.531 240.175 184.328 239.964 184.141C239.753 183.953 239.449 183.766 239.05 183.578C238.66 183.383 238.144 183.18 237.503 182.969C236.753 182.719 236.031 182.438 235.335 182.125C234.64 181.805 234.019 181.434 233.472 181.012C232.925 180.582 232.492 180.082 232.171 179.512C231.851 178.934 231.691 178.262 231.691 177.496C231.691 176.762 231.855 176.102 232.183 175.516C232.511 174.922 232.968 174.418 233.554 174.004C234.148 173.582 234.843 173.262 235.64 173.043C236.437 172.816 237.308 172.703 238.253 172.703C239.503 172.703 240.605 172.922 241.558 173.359C242.519 173.789 243.269 174.402 243.808 175.199C244.355 175.988 244.628 176.922 244.628 178H240.539C240.539 177.57 240.449 177.191 240.269 176.863C240.097 176.535 239.835 176.277 239.484 176.09C239.132 175.902 238.691 175.809 238.16 175.809C237.644 175.809 237.21 175.887 236.859 176.043C236.507 176.199 236.242 176.41 236.062 176.676C235.882 176.934 235.792 177.219 235.792 177.531C235.792 177.789 235.863 178.023 236.003 178.234C236.152 178.438 236.359 178.629 236.625 178.809C236.898 178.988 237.226 179.16 237.609 179.324C238 179.488 238.437 179.648 238.921 179.805C239.828 180.094 240.632 180.418 241.335 180.777C242.046 181.129 242.644 181.531 243.128 181.984C243.621 182.43 243.992 182.938 244.242 183.508C244.5 184.078 244.628 184.723 244.628 185.441C244.628 186.207 244.48 186.887 244.183 187.48C243.886 188.074 243.46 188.578 242.906 188.992C242.351 189.398 241.687 189.707 240.914 189.918C240.14 190.129 239.277 190.234 238.324 190.234C237.449 190.234 236.585 190.125 235.734 189.906C234.89 189.68 234.125 189.336 233.437 188.875C232.75 188.406 232.199 187.809 231.785 187.082C231.378 186.348 231.175 185.477 231.175 184.469H235.3C235.3 184.969 235.367 185.391 235.5 185.734C235.632 186.078 235.828 186.355 236.085 186.566C236.343 186.77 236.66 186.918 237.035 187.012C237.41 187.098 237.839 187.141 238.324 187.141C238.847 187.141 239.269 187.066 239.589 186.918C239.91 186.762 240.144 186.559 240.292 186.309C240.441 186.051 240.515 185.77 240.515 185.465ZM247.51 183.789V183.543C247.51 182.613 247.643 181.758 247.908 180.977C248.174 180.188 248.565 179.504 249.08 178.926C249.596 178.348 250.232 177.898 250.99 177.578C251.748 177.25 252.623 177.086 253.615 177.086C254.615 177.086 255.494 177.25 256.252 177.578C257.018 177.898 257.658 178.348 258.174 178.926C258.69 179.504 259.08 180.188 259.346 180.977C259.611 181.758 259.744 182.613 259.744 183.543V183.789C259.744 184.711 259.611 185.566 259.346 186.355C259.08 187.137 258.69 187.82 258.174 188.406C257.658 188.984 257.022 189.434 256.264 189.754C255.506 190.074 254.631 190.234 253.639 190.234C252.647 190.234 251.768 190.074 251.002 189.754C250.236 189.434 249.596 188.984 249.08 188.406C248.565 187.82 248.174 187.137 247.908 186.355C247.643 185.566 247.51 184.711 247.51 183.789ZM251.459 183.543V183.789C251.459 184.266 251.494 184.711 251.565 185.125C251.635 185.539 251.752 185.902 251.916 186.215C252.08 186.52 252.303 186.758 252.584 186.93C252.865 187.102 253.217 187.188 253.639 187.188C254.053 187.188 254.397 187.102 254.67 186.93C254.951 186.758 255.174 186.52 255.338 186.215C255.502 185.902 255.619 185.539 255.69 185.125C255.76 184.711 255.795 184.266 255.795 183.789V183.543C255.795 183.082 255.76 182.648 255.69 182.242C255.619 181.828 255.502 181.465 255.338 181.152C255.174 180.832 254.951 180.582 254.67 180.402C254.389 180.223 254.037 180.133 253.615 180.133C253.201 180.133 252.854 180.223 252.572 180.402C252.299 180.582 252.08 180.832 251.916 181.152C251.752 181.465 251.635 181.828 251.565 182.242C251.494 182.648 251.459 183.082 251.459 183.543ZM267.114 172V190H263.153V172H267.114ZM278.398 186.918V177.32H282.359V190H278.655L278.398 186.918ZM278.773 184.34L279.804 184.316C279.804 185.168 279.702 185.957 279.499 186.684C279.296 187.402 278.995 188.027 278.597 188.559C278.206 189.09 277.722 189.504 277.144 189.801C276.573 190.09 275.913 190.234 275.163 190.234C274.538 190.234 273.964 190.148 273.441 189.977C272.925 189.797 272.48 189.52 272.105 189.145C271.73 188.762 271.437 188.273 271.226 187.68C271.023 187.078 270.921 186.359 270.921 185.523V177.32H274.87V185.547C274.87 185.828 274.905 186.07 274.976 186.273C275.046 186.477 275.148 186.648 275.28 186.789C275.413 186.922 275.577 187.023 275.773 187.094C275.976 187.156 276.206 187.188 276.464 187.188C277.058 187.188 277.523 187.062 277.859 186.812C278.195 186.562 278.429 186.223 278.562 185.793C278.702 185.363 278.773 184.879 278.773 184.34ZM292.658 177.32V180.062H285.017V177.32H292.658ZM286.623 174.168H290.572V185.863C290.572 186.199 290.611 186.461 290.689 186.648C290.767 186.828 290.9 186.957 291.088 187.035C291.283 187.105 291.541 187.141 291.861 187.141C292.088 187.141 292.275 187.137 292.424 187.129C292.572 187.113 292.713 187.094 292.845 187.07V189.895C292.51 190.004 292.158 190.086 291.791 190.141C291.424 190.203 291.033 190.234 290.619 190.234C289.775 190.234 289.052 190.102 288.451 189.836C287.857 189.57 287.404 189.152 287.092 188.582C286.779 188.012 286.623 187.27 286.623 186.355V174.168ZM299.84 177.32V190H295.879V177.32H299.84ZM295.645 174.051C295.645 173.488 295.848 173.027 296.254 172.668C296.66 172.309 297.188 172.129 297.836 172.129C298.485 172.129 299.012 172.309 299.418 172.668C299.825 173.027 300.028 173.488 300.028 174.051C300.028 174.613 299.825 175.074 299.418 175.434C299.012 175.793 298.485 175.973 297.836 175.973C297.188 175.973 296.66 175.793 296.254 175.434C295.848 175.074 295.645 174.613 295.645 174.051ZM303.225 183.789V183.543C303.225 182.613 303.358 181.758 303.624 180.977C303.89 180.188 304.28 179.504 304.796 178.926C305.311 178.348 305.948 177.898 306.706 177.578C307.464 177.25 308.339 177.086 309.331 177.086C310.331 177.086 311.21 177.25 311.968 177.578C312.733 177.898 313.374 178.348 313.89 178.926C314.405 179.504 314.796 180.188 315.061 180.977C315.327 181.758 315.46 182.613 315.46 183.543V183.789C315.46 184.711 315.327 185.566 315.061 186.355C314.796 187.137 314.405 187.82 313.89 188.406C313.374 188.984 312.737 189.434 311.979 189.754C311.222 190.074 310.347 190.234 309.354 190.234C308.362 190.234 307.483 190.074 306.718 189.754C305.952 189.434 305.311 188.984 304.796 188.406C304.28 187.82 303.89 187.137 303.624 186.355C303.358 185.566 303.225 184.711 303.225 183.789ZM307.175 183.543V183.789C307.175 184.266 307.21 184.711 307.28 185.125C307.35 185.539 307.468 185.902 307.632 186.215C307.796 186.52 308.018 186.758 308.3 186.93C308.581 187.102 308.932 187.188 309.354 187.188C309.768 187.188 310.112 187.102 310.386 186.93C310.667 186.758 310.89 186.52 311.054 186.215C311.218 185.902 311.335 185.539 311.405 185.125C311.475 184.711 311.511 184.266 311.511 183.789V183.543C311.511 183.082 311.475 182.648 311.405 182.242C311.335 181.828 311.218 181.465 311.054 181.152C310.89 180.832 310.667 180.582 310.386 180.402C310.104 180.223 309.753 180.133 309.331 180.133C308.917 180.133 308.569 180.223 308.288 180.402C308.015 180.582 307.796 180.832 307.632 181.152C307.468 181.465 307.35 181.828 307.28 182.242C307.21 182.648 307.175 183.082 307.175 183.543ZM322.537 180.027V190H318.587V177.32H322.29L322.537 180.027ZM322.068 183.227L321.142 183.25C321.142 182.281 321.259 181.418 321.494 180.66C321.728 179.895 322.06 179.246 322.49 178.715C322.919 178.184 323.431 177.781 324.025 177.508C324.626 177.227 325.294 177.086 326.029 177.086C326.615 177.086 327.15 177.172 327.634 177.344C328.126 177.516 328.548 177.793 328.9 178.176C329.259 178.559 329.533 179.066 329.72 179.699C329.915 180.324 330.013 181.098 330.013 182.02V190H326.04V182.008C326.04 181.5 325.97 181.113 325.83 180.848C325.689 180.574 325.486 180.387 325.22 180.285C324.955 180.184 324.63 180.133 324.247 180.133C323.841 180.133 323.497 180.211 323.216 180.367C322.935 180.523 322.708 180.742 322.537 181.023C322.372 181.297 322.251 181.621 322.173 181.996C322.103 182.371 322.068 182.781 322.068 183.227ZM340.289 186.438C340.289 186.219 340.215 186.031 340.066 185.875C339.926 185.711 339.676 185.562 339.316 185.43C338.957 185.289 338.453 185.148 337.805 185.008C337.188 184.875 336.605 184.699 336.059 184.48C335.52 184.262 335.047 183.996 334.641 183.684C334.234 183.371 333.914 183 333.68 182.57C333.453 182.141 333.34 181.648 333.34 181.094C333.34 180.555 333.453 180.047 333.68 179.57C333.914 179.086 334.254 178.66 334.699 178.293C335.152 177.918 335.703 177.625 336.352 177.414C337 177.195 337.738 177.086 338.566 177.086C339.707 177.086 340.691 177.262 341.52 177.613C342.348 177.957 342.984 178.441 343.43 179.066C343.883 179.684 344.109 180.398 344.109 181.211H340.16C340.16 180.891 340.105 180.617 339.996 180.391C339.895 180.164 339.727 179.992 339.492 179.875C339.258 179.75 338.945 179.688 338.555 179.688C338.281 179.688 338.031 179.738 337.805 179.84C337.586 179.941 337.41 180.082 337.277 180.262C337.145 180.441 337.078 180.652 337.078 180.895C337.078 181.066 337.117 181.223 337.195 181.363C337.281 181.496 337.41 181.621 337.582 181.738C337.754 181.848 337.973 181.949 338.238 182.043C338.504 182.129 338.824 182.207 339.199 182.277C340.051 182.434 340.848 182.656 341.59 182.945C342.332 183.234 342.934 183.645 343.395 184.176C343.863 184.707 344.098 185.422 344.098 186.32C344.098 186.883 343.969 187.402 343.711 187.879C343.453 188.348 343.082 188.762 342.598 189.121C342.113 189.473 341.531 189.746 340.852 189.941C340.172 190.137 339.406 190.234 338.555 190.234C337.344 190.234 336.32 190.02 335.484 189.59C334.648 189.152 334.016 188.605 333.586 187.949C333.164 187.285 332.953 186.613 332.953 185.934H336.633C336.648 186.324 336.742 186.645 336.914 186.895C337.094 187.145 337.332 187.328 337.629 187.445C337.926 187.562 338.27 187.621 338.66 187.621C339.02 187.621 339.316 187.57 339.551 187.469C339.793 187.367 339.977 187.23 340.102 187.059C340.227 186.879 340.289 186.672 340.289 186.438Z" fill="white"/>
</svg>
